<svg xmlns="http://www.w3.org/2000/svg" data-name="Layer 1" viewBox="0 0 750 425" x="0px" y="0px">
    <path
        d="M355.23,240H109.76q-39.56,0-78.94-2l-13.3-.69,13.3-.68q39.34-2,78.94-2H355.23Zm363.95-3.39q-39.34-2-78.94-2H394.77V240H640.24q39.56,0,78.94-2l13.3-.69ZM375,226.23a11,11,0,1,0,11,11A11,11,0,0,0,375,226.23Zm-4.72,28.56h0a6.68,6.68,0,0,0-1.18,7.85l5.9,11.13,5.9-11.13a6.68,6.68,0,0,0-1.18-7.85h0A6.69,6.69,0,0,0,370.28,254.79Zm-16.61-9.63h0a6.69,6.69,0,0,0-6.39,4.72l-3.69,12,12-3.69a6.69,6.69,0,0,0,4.72-6.39h0A6.68,6.68,0,0,0,353.67,245.16Zm36,6.68h0a6.69,6.69,0,0,0,4.72,6.39l12,3.69-3.69-12a6.69,6.69,0,0,0-6.39-4.72h0A6.68,6.68,0,0,0,389.65,251.84Z" />
</svg>